 http://imgr.us/images/l0nkouu4jedjdpjbpp0.jpg

Info:
Format : AVI
Format/Info : Audio Video Interleave
File size : 1.85 GiB
Duration : 2h 4mn
Overall bit rate : 2 132 Kbps
Writing library : MPlayer



Video
ID : 0
Format : MPEG-4 Visual
Format profile : Advanced Simple@L5
Format settings, BVOP : 2
Format settings, QPel : No
Format settings, GMC : No warppoints
Format settings, Matrix : Default (H.263)
Codec ID : XVID
Codec ID/Hint : XviD
Duration : 2h 4mn
Bit rate : 1 864 Kbps
Width : 720 pixels
Height : 304 pixels
Display aspect ratio : 2.35:1
Frame rate : 25.000 fps
Color space : YUV
Chroma subsampling : 4:2:0
Bit depth : 8 bits
Scan type : Progressive
Compression mode : Lossy
Bits/(Pixel*Frame) : 0.341
Stream size : 1.62 GiB (87%)
Writing library : XviD 1.1.2 (UTC 2006-11-01)



Audio
ID : 1
Format : MPEG Audio
Format version : Version 1
Format profile : Layer 3
Mode : Joint stereo
Codec ID : 55
Codec ID/Hint : MP3
Duration : 2h 4mn
Bit rate mode : Constant
Bit rate : 256 Kbps
Channel(s) : 2 channels
Sampling rate : 44.1 KHz
Compression mode : Lossy
Delay relative to video : 40ms
Stream size : 227 MiB (12%)
Alignment : Aligned on interleaves
Interleave, duration : 26 ms (0.65 video frame)
Interleave, preload duration : 809 ms



Screens: 
http://imgr.us/images/2425ydm0zmd1rdaolb49.jpg


